<svg xmlns="http://www.w3.org/2000/svg" viewBox="0 0 1024 1024" role="img" aria-label="RemitX">
<path d="M0 0 C-2.88156117 14.38057179 -6.2763955 28.60830779 -9.80744553 42.83943176 C-10.56693357 45.90372737 -11.32246785 48.96899771 -12.07836914 52.03417969 C-13.37166401 57.27679043 -14.66690615 62.51891648 -15.96337891 67.76074219 C-18.94521441 79.81816778 -21.91446615 91.87869483 -24.88349342 103.93927956 C-25.89513273 108.0484202 -26.9076977 112.15733107 -27.9211359 116.2660284 C-34.05856865 141.15075487 -40.08777443 166.0607804 -46 191 C-50.13188664 189.36302343 -52.76957255 186.49462379 -55.8125 183.375 C-56.34584961 182.83520508 -56.87919922 182.29541016 -57.42871094 181.73925781 C-60.87033664 178.23068256 -64.14735291 174.63360498 -67.33203125 170.890625 C-70.38572127 167.42929954 -73.69885031 164.22397996 -77 161 C-84.3647015 164.26778146 -89.43844735 171.41531893 -94.36206055 177.57983398 C-97.8946735 181.96475991 -101.70703247 186.05536596 -105.55761719 190.16064453 C-108.69079006 193.5218837 -111.64916514 196.96010515 -114.5 200.5625 C-118.25127283 205.28565433 -122.39131087 209.50404842 -126.69262695 213.72631836 C-130.06011023 217.03655172 -133.24396448 220.43509184 -136.3125 224.02734375 C-144.70813991 233.84169133 -153.40675957 243.64572214 -162.6875 252.625 C-165.85530991 255.72427557 -168.54426763 259.11925005 -171.2956543 262.58227539 C-174.92713418 267.0699391 -178.96085557 271.10073313 -183.10229492 275.1159668 C-183.5944751 275.59461182 -184.08665527 276.07325684 -184.59375 276.56640625 C-185.03396484 276.98865479 -185.47417969 277.41090332 -185.92773438 277.84594727 C-187.13625468 279.03818702 -187.13625468 279.03818702 -188 281 C-188.66 281 -189.32 281 -190 281 C-190.22945312 281.54914063 -190.45890625 282.09828125 -190.6953125 282.6640625 C-192.37085591 285.66398753 -194.51586951 287.8972333 -196.875 290.375 C-201.05451851 294.84396078 -205.1037785 299.39688683 -209.0625 304.0625 C-213.10592048 308.81992555 -217.20798563 313.50690113 -221.43969727 318.09790039 C-223.7673416 320.62603617 -226.04140354 323.19272039 -228.29296875 325.7890625 C-232.73159752 330.87731958 -237.38722559 335.75208209 -242.0390625 340.64453125 C-245.9163217 344.73885708 -249.6936018 348.8955196 -253.38769531 353.15576172 C-255.66324403 355.75865315 -258.01834033 358.28331572 -260.375 360.8125 C-265.49736521 366.34855003 -270.299462 372.10401653 -275 378 C-275.66 378 -276.32 378 -277 378 C-277.25394531 378.58265625 -277.50789063 379.1653125 -277.76953125 379.765625 C-279.13320333 382.24188033 -280.64225203 383.80520626 -282.6875 385.75 C-285.96000397 388.92291244 -288.98933178 392.21959864 -291.9609375 395.6796875 C-294.52117763 398.62855895 -297.20997966 401.45872471 -299.875 404.3125 C-303.61530375 408.32501539 -307.20997452 412.39489597 -310.625 416.6875 C-313.97216057 420.88889964 -317.571281 424.69100448 -321.41064453 428.44433594 C-324.49208739 431.46215727 -327.35920468 434.6038942 -330.1640625 437.8828125 C-331.93813761 439.92866082 -333.75545934 441.92435717 -335.58959961 443.91601562 C-339.73824591 448.42318691 -343.69849861 453.02489359 -347.5324707 457.80175781 C-350.83877936 461.88419187 -354.38116506 465.71996578 -357.95996094 469.56323242 C-362.23005059 474.17956603 -366.15846471 479.02471648 -370 484 C-370.66 484 -371.32 484 -372 484 C-372.23589844 484.55558594 -372.47179687 485.11117188 -372.71484375 485.68359375 C-374.30957041 488.5579795 -376.31156161 490.68882964 -378.5625 493.0625 C-381.97566925 496.73205755 -385.24839649 500.45869104 -388.375 504.375 C-392.74461959 509.82250502 -397.4666103 514.90959126 -402.2265625 520.015625 C-405.571373 523.60397882 -408.80602218 527.27699894 -412 531 C-412.41685059 531.4851709 -412.83370117 531.9703418 -413.26318359 532.47021484 C-417.86105553 537.82241266 -422.45618366 543.17690864 -427.01953125 548.55859375 C-432.97100283 555.56330254 -439.07134282 562.39167963 -445.33203125 569.12109375 C-449.60725564 573.72026632 -453.69557278 578.47224076 -457.7734375 583.24609375 C-458.8072254 584.4557858 -459.84108147 585.6654196 -460.875 586.875 C-461.65484253 587.78813965 -461.65484253 587.78813965 -462.45043945 588.71972656 C-465.47934486 592.25684393 -468.5490131 595.7474503 -471.6875 599.1875 C-474.70320562 602.49400581 -477.57031826 605.88801478 -480.375 609.375 C-484.13082232 614.04433309 -488.10203648 618.47688164 -492.19482422 622.85302734 C-494.94533927 625.80225266 -497.5192743 628.81958244 -500 632 C-505.17714102 634.98681213 -510.63349896 635.14999615 -516.45407104 635.12025452 C-517.075814 635.12110894 -517.69755696 635.12196337 -518.33814061 635.12284368 C-520.40628389 635.12448122 -522.47434475 635.11900561 -524.54248047 635.11352539 C-526.03103127 635.11324312 -527.51958221 635.11340203 -529.00813293 635.1139679 C-533.03865309 635.11425431 -537.06914336 635.10838272 -541.09965658 635.10139394 C-545.31571392 635.09513451 -549.53177198 635.09455455 -553.74783325 635.09336853 C-561.72685746 635.09026285 -569.70586793 635.08205975 -577.6848861 635.07201904 C-586.77070296 635.06083421 -595.85652048 635.05534148 -604.94234252 635.05032361 C-623.62823595 635.0398765 -642.31411721 635.02229183 -661 635 C-660 632 -660 632 -658.671875 630.92578125 C-654.361236 627.3072977 -650.51813036 623.48191178 -646.75 619.3125 C-640.45088859 612.34509501 -633.80681917 605.74552705 -627.11816406 599.15551758 C-623.47001875 595.55016327 -619.89017311 591.94919892 -616.55078125 588.05078125 C-611.73013297 582.43265861 -606.38529013 577.32773028 -601.11572266 572.13623047 C-596.08510835 567.17338055 -591.19598523 562.18988122 -586.59570312 556.81835938 C-584.03736169 553.90304006 -581.27311634 551.20906338 -578.5 548.5 C-574.26616949 544.32477131 -570.25260421 540.09314369 -566.40625 535.55859375 C-565.16717293 534.18528333 -563.97583357 533.10214494 -562.5 532 C-559.62936974 529.84933488 -557.46481292 527.18057049 -555.14453125 524.4609375 C-552.55864069 521.45595002 -549.83185596 518.58306831 -547.125 515.6875 C-543.38447793 511.67520336 -539.79001048 507.60508517 -536.375 503.3125 C-533.0286973 499.11217716 -529.42884334 495.31330048 -525.59375 491.55786133 C-518.78866889 484.88436285 -512.89418955 477.47107663 -507 470 C-506.34 470 -505.68 470 -505 470 C-504.72849121 469.40558105 -504.45698242 468.81116211 -504.17724609 468.19873047 C-503.02089284 466.03902134 -501.8563103 464.5758627 -500.1640625 462.8203125 C-499.60066162 462.22855225 -499.03726074 461.63679199 -498.45678711 461.02709961 C-497.85229736 460.39940674 -497.24780762 459.77171387 -496.625 459.125 C-491.922729 454.17139343 -487.34079104 449.15885236 -482.9375 443.9375 C-478.2767088 438.42054937 -473.44004715 433.10090005 -468.50585938 427.82788086 C-464.57656772 423.62836131 -460.73858426 419.37090296 -457 415 C-456.12377679 413.97779697 -455.24746655 412.95566854 -454.37109375 411.93359375 C-452.85721018 410.16731228 -451.34358523 408.40081137 -449.83056641 406.63378906 C-441.63362001 397.0634924 -433.41859584 387.51325645 -424.9609375 378.171875 C-420.87640779 373.64797357 -416.8905972 369.03946256 -412.921875 364.4140625 C-412.36016602 363.76139404 -411.79845703 363.10872559 -411.21972656 362.4362793 C-410.1047004 361.14032257 -408.99192695 359.84242289 -407.88183594 358.54223633 C-404.60533547 354.73747763 -401.20605315 351.12666534 -397.61401367 347.61767578 C-393.59696352 343.59151116 -389.99174554 339.16853097 -386.3125 334.8359375 C-380.7187668 328.26047354 -375.03943824 321.79889286 -369.15625 315.48046875 C-365.94077759 312.0268132 -362.7949295 308.52577011 -359.70703125 304.95703125 C-357.66367497 302.61441913 -355.5839499 300.30646968 -353.5 298 C-350.23182825 294.3811043 -347.00480453 290.73017848 -343.8046875 287.05078125 C-342.50849934 285.57784016 -341.20406065 284.11801782 -339.8828125 282.66796875 C-336.02512957 278.43236281 -332.27353218 274.15652097 -328.6875 269.6875 C-324.74748834 264.78599543 -320.54363088 260.16720886 -316.24658203 255.57739258 C-313.15627004 252.27404164 -310.17403487 248.92797841 -307.37890625 245.3671875 C-306 244 -306 244 -303.6953125 242.6953125 C-300.28577239 240.74212134 -297.89818495 237.91285325 -295.3125 235 C-294.82716797 234.46632813 -294.34183594 233.93265625 -293.84179688 233.3828125 C-291.70167065 231.00948632 -289.72716326 228.69586576 -288 226 C-287.34 226 -286.68 226 -286 226 C-285.731875 225.4225 -285.46375 224.845 -285.1875 224.25 C-283.98280141 221.9674132 -282.59201885 220.0262058 -281 218 C-280.34 218 -279.68 218 -279 218 C-278.73662842 217.41444336 -278.47325684 216.82888672 -278.2019043 216.22558594 C-276.94677217 213.90143714 -275.59314046 212.29392262 -273.76953125 210.390625 C-273.13080078 209.71773437 -272.49207031 209.04484375 -271.83398438 208.3515625 C-271.16689453 207.65804687 -270.49980469 206.96453125 -269.8125 206.25 C-265.2842515 201.50998267 -260.83736842 196.73134624 -256.54321289 191.77734375 C-254.66416152 189.61320928 -252.7425067 187.49376983 -250.8125 185.375 C-247.17107411 181.35747936 -243.63863178 177.25444613 -240.125 173.125 C-235.00731496 167.11947046 -229.74232832 161.27357803 -224.37646484 155.48974609 C-222.94803782 153.9437614 -221.52947547 152.38922563 -220.11328125 150.83203125 C-215.70324228 145.98614676 -211.26652059 141.21671955 -206.59375 136.62109375 C-204.29623613 134.28416175 -202.17599611 131.80755027 -200.0390625 129.32421875 C-196.99449312 125.81716329 -193.81060525 122.43255329 -190.64355469 119.03637695 C-190.18625977 118.54226318 -189.72896484 118.04814941 -189.2578125 117.5390625 C-188.8467627 117.09771973 -188.43571289 116.65637695 -188.01220703 116.20166016 C-186.87701306 114.94918248 -186.87701306 114.94918248 -186 113 C-185.34 113 -184.68 113 -184 113 C-183.74347656 112.41347656 -183.48695313 111.82695312 -183.22265625 111.22265625 C-181.88826104 108.79687071 -180.45514672 107.32471299 -178.4375 105.4375 C-174.69059833 101.79979765 -171.38816752 97.94812999 -168.14624023 93.85717773 C-165.91122486 91.04999842 -163.58443371 88.49130097 -161 86 C-165.95410076 76.09179848 -177.70748604 68.38140513 -186 61 C-186.3805957 60.6606543 -186.76119141 60.32130859 -187.15332031 59.97167969 C-191.8641326 55.71221494 -191.8641326 55.71221494 -197 52 C-197 51.34 -197 50.68 -197 50 C-187.36672559 47.34260484 -177.7080374 44.97035319 -167.94271851 42.8515625 C-164.03386479 42.00201748 -160.12828918 41.13764947 -156.22265625 40.2734375 C-155.39909134 40.09125671 -154.57552643 39.90907593 -153.727005 39.72137451 C-118.7341866 31.96124666 -84.03278832 23.35565647 -49.47523499 13.85962296 C-47.97386228 13.44748179 -46.47214395 13.03662345 -44.97033691 12.62606812 C-33.19191107 9.40287378 -21.51334658 5.98997009 -9.91868591 2.16148376 C-8.62197716 1.73749046 -8.62197716 1.73749046 -7.29907227 1.30493164 C-6.53909439 1.05264297 -5.77911652 0.80035431 -4.99610901 0.54042053 C-3 0 -3 0 0 0 Z " fill="#02B0E2" transform="translate(831,177)" />
<path d="M0 0 C62.04 0 124.08 0 188 0 C191.0479438 3.0479438 193.66093493 5.67088098 196.234375 9.00390625 C197.08805664 10.10496704 197.08805664 10.10496704 197.95898438 11.22827148 C198.55001953 11.99856689 199.14105469 12.7688623 199.75 13.5625 C200.37806353 14.37653139 201.00632093 15.19041323 201.63476562 16.00415039 C207.62122313 23.76674897 213.50374962 31.60082706 219.30859375 39.5 C220.51812596 41.14590921 221.72776773 42.79173783 222.9375 44.4375 C223.24089294 44.85036255 223.54428589 45.2632251 223.85687256 45.68859863 C227.94813032 51.25318894 232.09171457 56.77128642 236.32104492 62.23168945 C244.34563075 72.59929141 252.12608112 83.15196868 259.89239502 93.71359253 C265.87544411 101.84907251 271.92720939 109.93139936 278 118 C287.34194336 130.41215366 296.5898565 142.89178244 305.77490234 155.42041016 C312.66686118 164.82095826 319.59899024 174.18027679 326.73852539 183.39501953 C329.65202766 187.16951017 332.42534124 190.98567632 335 195 C334.67314209 195.35191406 334.34628418 195.70382812 334.00952148 196.06640625 C326.9660121 203.65610653 320.00778827 211.28884717 313.296875 219.17578125 C307.47186033 226.01326382 301.5549513 232.7329592 295.45703125 239.328125 C292.82942636 242.17344286 290.27957974 245.08192002 287.7421875 248.0078125 C285.6850017 250.36019985 283.59478185 252.68112114 281.5 255 C278.23186452 258.61892906 275.00480526 262.26982068 271.8046875 265.94921875 C270.50849934 267.42215984 269.20406065 268.88198218 267.8828125 270.33203125 C264.10228799 274.48324409 260.43310481 278.66795502 256.9375 283.0625 C252.64573336 288.42575116 247.93964065 293.3757641 243.20571899 298.3465271 C237.81646997 304.00991496 232.61300134 309.80389003 227.52587891 315.74145508 C224.28166864 319.52738437 220.99208164 323.26039419 217.625 326.9375 C211.74196161 333.36658964 206.04324534 339.94379223 200.375 346.5625 C198.25060584 349.04218654 196.12552532 351.52128301 194 354 C193.46536133 354.62390625 192.93072266 355.2478125 192.37988281 355.890625 C185.60680444 363.78507397 178.71505704 371.53811563 171.6328125 379.15625 C167.34241488 383.77621305 163.23391952 388.54384147 159.15625 393.3515625 C154.48009398 398.85417127 149.85988807 404.28098561 144.6484375 409.2890625 C142.17873202 411.8524061 140.03019068 414.65065836 137.83666992 417.45019531 C135.81786464 420.01503469 133.75314278 422.36510638 131.39453125 424.61328125 C129.43202523 426.56479283 127.59542634 428.62627312 125.75 430.6875 C125.36191162 431.12078613 124.97382324 431.55407227 124.57397461 432.00048828 C123.77581223 432.89271571 122.97804586 433.78529755 122.18066406 434.67822266 C120.33255703 436.74721593 118.47963262 438.81185594 116.625 440.875 C116.26067871 441.28049072 115.89635742 441.68598145 115.52099609 442.10375977 C112.49495628 445.46508217 109.4366921 448.7961664 106.375 452.125 C102.77692951 456.03873398 99.22880916 459.98667337 95.74609375 464.00390625 C93.28574207 466.81652304 90.77713862 469.58478888 88.26733398 472.35327148 C86.09809519 474.75338887 83.99690219 477.19159409 81.9375 479.6875 C79.85479538 482.14783788 77.64749166 484.23022359 75.1875 486.3125 C71.67830559 489.29763702 68.66846267 492.49853367 65.6418457 495.9519043 C62.0753036 499.99105678 58.28350502 503.77853223 54.42480469 507.5378418 C51.69812973 510.21665589 49.12808889 512.97040488 46.6328125 515.8671875 C42.33032416 520.8397645 37.65236557 525.39844603 32.9609375 530 C29.79688271 533.1274055 26.72579067 536.26582451 23.84375 539.65625 C17.87260676 546.58873376 11.18072302 552.87199631 4.67919922 559.30029297 C-4.2800139 568.11758613 -4.2800139 568.11758613 -12.65649414 577.48046875 C-14.56899881 579.64354872 -16.66948672 581.30508125 -19 583 C-17.49316768 579.61157913 -15.43965224 576.93299815 -13.0625 574.125 C-9.55186232 569.90865251 -6.12367635 565.63916809 -2.75 561.3125 C1.81259906 555.47269593 6.46843248 549.71429656 11.15429688 543.97314453 C14.73317229 539.58040476 18.26099955 535.15189345 21.75 530.6875 C25.63056491 525.72385824 29.56975016 520.81713198 33.57421875 515.953125 C36.46401749 512.44226771 39.32380967 508.90715492 42.1875 505.375 C46.86975175 499.60328947 51.58171972 493.8569868 56.3125 488.125 C60.54354011 482.99728152 64.74503536 477.85173665 68.8828125 472.6484375 C75.69205206 464.10470508 82.63119523 455.66257552 89.55541992 447.21191406 C93.92003351 441.88207771 98.25998939 436.53220034 102.6015625 431.18359375 C104.84282603 428.42288746 107.08774204 425.66522 109.3359375 422.91015625 C114.49077853 416.58826775 119.61169788 410.24740444 124.625 403.8125 C128.15224365 399.28657125 131.76978285 394.86006266 135.5 390.5 C141.20767371 383.82585119 146.61428625 376.93487147 152 370 C157.81853176 362.50781386 163.70021744 355.10902333 169.8684082 347.90087891 C174.65905192 342.27778506 179.18685464 336.45791129 183.72314453 330.62939453 C185.99245817 327.73352469 188.30443212 324.87153002 190.62768555 322.01879883 C191.95003108 320.38189588 193.05495369 318.89009262 194 317 C194.66 317 195.32 317 196 317 C196.24105469 316.44957031 196.48210937 315.89914062 196.73046875 315.33203125 C198.28652154 312.47368198 200.21559479 310.16237334 202.3125 307.6875 C205.73591322 303.58284476 208.99443543 299.42527849 212 295 C211.33227484 291.2461919 211.33227484 291.2461919 209.87353516 289.47802734 C197.40744065 272.62478956 197.40744065 272.62478956 192 265 C185.78631058 256.24598542 179.38256902 247.63108994 173 239 C170.58199489 235.73015371 168.1650282 232.45954571 165.75 229.1875 C165.16541016 228.39561279 164.58082031 227.60372559 163.97851562 226.7878418 C160.52376581 222.09806773 157.11607439 217.37871866 153.75 212.625 C150.26776169 207.70885755 146.65501647 202.9179885 142.95336914 198.16552734 C139.4208075 193.60487785 136.04666066 188.93933833 132.6875 184.25 C128.39003854 178.25365978 124.00769181 172.33992737 119.5 166.5 C114.39648459 159.88633148 109.46325904 153.16635871 104.59375 146.37890625 C101.6068103 142.21749027 98.5926019 138.08346326 95.5 134 C91.86575605 129.19679818 88.33082319 124.32615049 84.8125 119.4375 C80.15954915 112.97415324 75.47594821 106.53506124 70.75 100.125 C70.45220642 99.72104004 70.15441284 99.31708008 69.84759521 98.90087891 C66.05872661 93.7639555 62.24039828 88.65063474 58.39477539 83.55615234 C54.51979928 78.39956935 50.7731859 73.15044011 47.00756836 67.91381836 C43.39373581 62.89952742 39.72412587 57.93281716 36 53 C31.80669825 47.44365099 27.68970333 41.83860843 23.625 36.1875 C19.23379182 30.0827146 14.81836344 23.99714305 10.36029053 17.94107056 C9.46232774 16.72122739 8.56537787 15.50063879 7.66845703 14.2800293 C4.85024765 10.45754997 2.00342498 6.67901202 -1 3 C-0.67 2.01 -0.34 1.02 0 0 Z " fill="#E8EEF4" transform="translate(191,226)" />
<path d="M0 0 C3 1 3 1 4.01879883 2.43017578 C11.03795235 12.26485464 18.19502772 21.93400633 25.72216797 31.38818359 C32.47377805 39.90444836 38.97477085 48.6148758 45.48464966 57.31610107 C49.7358548 62.99787175 54.01559712 68.65496583 58.36108398 74.26513672 C61.64566078 78.51432395 64.85442183 82.81789991 68.0625 87.125 C71.40420187 91.60741181 74.78343048 96.02759995 78.375 100.3125 C84.03994467 107.09029506 89.15867031 114.2888016 94.37043762 121.41555786 C98.65413785 127.26800983 103.02503494 133.05498413 107.38574219 138.85009766 C109.16005528 141.21316497 110.92810796 143.58083467 112.6953125 145.94921875 C118.62110814 153.88617866 124.56918576 161.79545049 130.72241211 169.55859375 C134.91980363 174.86608386 139.02687774 180.24076176 143.125 185.625 C143.47305695 186.08228485 143.82111389 186.5395697 144.17971802 187.01071167 C148.44978467 192.62362931 152.6995597 198.25126532 156.92163086 203.90039062 C162.27567976 211.05438706 167.74234789 218.12309578 173.25390625 225.15625 C179.90701944 233.65473165 186.42782041 242.22917521 192.80175781 250.93920898 C197.79590744 257.75446472 202.90992102 264.47204851 208.0625 271.16796875 C211.07611055 275.08627169 214.04263114 279.03914451 217 283 C216.67 283.99 216.34 284.98 216 286 C194.36408054 286.04674526 172.72816867 286.08200124 151.09220886 286.10362434 C149.0912577 286.10567731 147.09030657 286.10774664 145.08935547 286.10986328 C144.59202129 286.1103879 144.0946871 286.11091252 143.58228219 286.11145304 C136.03937888 286.11960503 128.49650088 286.13364132 120.95361328 286.15087891 C112.19614579 286.17082928 103.43870105 286.18372036 94.68121147 286.18817699 C90.04529886 286.19078157 85.40945131 286.19689229 80.77355957 286.21146011 C76.40698307 286.22507002 72.04049821 286.22921575 67.67390251 286.22621536 C66.0743758 286.226764 64.47484592 286.2307211 62.8753376 286.23841095 C43.31618945 286.32780417 43.31618945 286.32780417 36.40332031 281.26318359 C33.63867996 278.7746225 31.53346158 275.82483435 29.375 272.8125 C28.86356445 272.11560059 28.35212891 271.41870117 27.82519531 270.70068359 C23.54263738 264.83669238 19.38235994 258.88497484 15.21801758 252.93676758 C12.01669049 248.38198266 8.70274821 244.00361583 5.17578125 239.6953125 C-6.46820666 225.40622929 -17.31000383 210.39559668 -28.22085571 195.54321289 C-33.66249522 188.13610322 -39.17113781 180.79080139 -44.81005859 173.53271484 C-46.90095656 170.83951471 -48.98220106 168.13889108 -51.0625 165.4375 C-51.47862549 164.89746338 -51.89475098 164.35742676 -52.32348633 163.80102539 C-55.05889204 160.24398029 -57.75667908 156.66078923 -60.4375 153.0625 C-63.61659317 148.7957118 -66.87941833 144.60487023 -70.1875 140.4375 C-75.3660962 133.90659079 -80.31565016 127.21494535 -85.22924805 120.48413086 C-88.07695371 116.58806486 -90.94220342 112.73396781 -94 109 C-92.37414117 105.05682515 -89.77146845 102.41214986 -86.875 99.375 C-81.95716674 94.12605704 -77.39425933 88.69113243 -73 83 C-72.34 83 -71.68 83 -71 83 C-70.77441406 82.45472656 -70.54882812 81.90945313 -70.31640625 81.34765625 C-68.59338611 78.27485178 -66.35787588 75.97660664 -63.9375 73.4375 C-60.29151041 69.5429881 -56.77186356 65.60225773 -53.4375 61.4375 C-50.41431991 57.66815607 -47.2780413 54.04995256 -44 50.5 C-40.68350623 46.90755759 -37.50508544 43.24482019 -34.4375 39.4375 C-30.46573892 34.50821395 -26.28416632 29.80822449 -22.02148438 25.13037109 C-20.53225354 23.48239338 -19.07902205 21.80404927 -17.625 20.125 C-14.10591776 16.07722935 -10.47163779 12.13839328 -6.81884766 8.21142578 C-4.38050797 5.57432262 -2.09193569 2.92870996 0 0 Z " fill="#EC1F59" transform="translate(612,526)" />
</svg>
